<svg xmlns="http://www.w3.org/2000/svg" width="64.413" height="76.498" viewBox="0 0 64.413 76.498">
  <path id="Union_5" data-name="Union 5" d="M27.011,74.989a17.784,17.784,0,0,1-5.675-4.114,19.278,19.278,0,0,1-3.826-6.1,20.322,20.322,0,0,1-1.4-7.473c0-.494.018-.992.052-1.48a16.766,16.766,0,0,0,3.944.47c7.667,0,14.47-5.265,16.928-13.1a34.875,34.875,0,0,0,8.108,7.5,64.467,64.467,0,0,0,6.469,3.7,20.86,20.86,0,0,1,.2,2.914,20.322,20.322,0,0,1-1.4,7.473,19.283,19.283,0,0,1-3.826,6.1,17.782,17.782,0,0,1-5.675,4.114,16.759,16.759,0,0,1-13.9,0ZM47.245,48.981a32.173,32.173,0,0,1-9.013-8.048s.8-5.8-.72-10.269-4.2-3.862-4.991-8.42S35.058,13.4,35.058,13.4l-2.1-3.687L25.376,20.281l-1.267-.375a17.792,17.792,0,0,1-6.145,34.552,17.811,17.811,0,1,1,0-35.621,18.167,18.167,0,0,1,4.143.476L21.053,19S28.1,6.286,29.017,7.2C29.06,7.151,27.653-1.062,34.6.116s2.911,8.477,2.911,8.477l1.434,3.861S50,36.023,50.666,35.638s-8.951-23.184-8.951-23.184A27.634,27.634,0,0,1,60.987,26.447c6.961,12.519,1.16,29.508,1.16,29.508A101.9,101.9,0,0,1,47.245,48.981Z" fill="#fff"/>
</svg>
