<svg xmlns="http://www.w3.org/2000/svg" width="73.513" height="73.513" viewBox="0 0 73.513 73.513">
  <path id="Union_1" data-name="Union 1" d="M17.066,73.513H11.377s-4.652-28.327,7.88-28.327,9.208,17.082,9.208,17.082H22.553S23.8,50.913,19.813,50.913c-3.7,0-2.968,9.279-2.747,16.055.009.283.017.563.023.839H39.331a27.027,27.027,0,0,1-4.548-7.354,25.635,25.635,0,0,1-1.064-9.31c.093-1.672-1.785-5.354-4.176-7.611a15.943,15.943,0,0,0-2.972-2.186c-1.067-.155-2.272-.886-4.361-1.4C12.532,37.586,7.182,47.914,5.689,51.364V73.513H0V11.192s28.242-4.666,28.242,7.9-17.032,9.236-17.032,9.236V22.4s11.321,1.247,11.321-2.749c0-3.711-9.251-2.976-16.007-2.755-.282.009-.562.017-.836.023V39.55a26.979,26.979,0,0,1,7.443-4.659,25.416,25.416,0,0,1,9.282-1.067c1.667.093,5.338-1.791,7.588-4.189a15.82,15.82,0,0,0,2.047-2.753c.024-1.163.857-2.4,1.421-4.718,2.3-9.48-7.467-14.82-11.129-16.459H0V0H62.136s4.652,28.327-7.88,28.327-9.208-17.082-9.208-17.082h5.913S49.716,22.6,53.7,22.6c3.7,0,2.968-9.279,2.747-16.055-.009-.283-.017-.563-.023-.839H33.966a27.027,27.027,0,0,1,4.548,7.354,25.635,25.635,0,0,1,1.064,9.31c-.093,1.672,1.785,5.354,4.176,7.611a15.913,15.913,0,0,0,2.928,2.16c1.078.141,2.287.885,4.406,1.4,10.223,2.5,15.617-9.17,16.737-11.929V0h5.689V62.321s-28.242,4.666-28.242-7.9S62.3,45.181,62.3,45.181v5.93S50.98,49.864,50.98,53.86c0,3.711,9.251,2.976,16.007,2.755.282-.009.562-.017.836-.023V33.749A27.044,27.044,0,0,1,60.165,38.6a25.42,25.42,0,0,1-9.282,1.067c-1.667-.093-5.338,1.79-7.588,4.189a15.823,15.823,0,0,0-2.046,2.753c-.014,1.169-.854,2.4-1.421,4.738-2.3,9.48,7.467,14.82,11.129,16.459H73.513v5.705ZM33.9,39.7a18.858,18.858,0,0,1,2.7,3.62l.016-.006a18.448,18.448,0,0,1,2.854-3.828,18.805,18.805,0,0,1,3.609-2.712s-.03-.079-.071-.215A18.114,18.114,0,0,1,39.4,33.812a18.858,18.858,0,0,1-2.7-3.62l-.03.011a18.416,18.416,0,0,1-2.84,3.8,18.816,18.816,0,0,1-3.609,2.712s.034.088.078.239A18.111,18.111,0,0,1,33.9,39.7Z" fill="#fff"/>
</svg>
