<svg xmlns="http://www.w3.org/2000/svg" width="82.537" height="70.502" viewBox="0 0 82.537 70.502">
  <path id="Union_3" data-name="Union 3" d="M64.319,70.216a2.385,2.385,0,0,1-1.006-.788,1.972,1.972,0,0,1-.358-1.172H64.19a1.153,1.153,0,0,0,.4.938,1.76,1.76,0,0,0,1.147.331,1.519,1.519,0,0,0,.969-.261.84.84,0,0,0,.325-.69.858.858,0,0,0-.329-.723,3.965,3.965,0,0,0-1.189-.513,5.771,5.771,0,0,1-1.368-.576,1.826,1.826,0,0,1-.971-1.592,1.73,1.73,0,0,1,.7-1.416,2.833,2.833,0,0,1,1.819-.557,3.07,3.07,0,0,1,1.324.274,2.177,2.177,0,0,1,.913.778,2,2,0,0,1,.332,1.121h-1.23a1.112,1.112,0,0,0-.349-.871,1.444,1.444,0,0,0-1-.315,1.5,1.5,0,0,0-.94.259.86.86,0,0,0-.335.723.78.78,0,0,0,.362.652,4.19,4.19,0,0,0,1.192.508,5.507,5.507,0,0,1,1.333.562,2.125,2.125,0,0,1,.737.723,1.88,1.88,0,0,1,.234.955,1.692,1.692,0,0,1-.68,1.413,2.955,2.955,0,0,1-1.849.526A3.468,3.468,0,0,1,64.319,70.216ZM56.31,70.4l-3.169-5.044V70.4H51.907V63.3h1.235l3.179,5.063V63.3h1.226V70.4ZM45.5,70.4l-.581-1.655H42.167L41.591,70.4H40.306L42.992,63.3H44.1L46.791,70.4Zm-2.988-2.651h2.061L43.544,64.8ZM32.075,70.4V63.3h4.517v1H33.311v2.115h2.861v.986H33.311V70.4Zm-10.843,0V63.3h2.1A3.291,3.291,0,0,1,25,63.715a2.861,2.861,0,0,1,1.13,1.192,3.778,3.778,0,0,1,.4,1.768v.356a3.771,3.771,0,0,1-.4,1.777,2.838,2.838,0,0,1-1.147,1.182,3.452,3.452,0,0,1-1.706.415Zm1.236-.986h.806a1.858,1.858,0,0,0,1.492-.607,2.65,2.65,0,0,0,.529-1.746v-.4a2.713,2.713,0,0,0-.5-1.768,1.783,1.783,0,0,0-1.46-.611h-.864ZM10.614,70.4V63.3H13.05a2.973,2.973,0,0,1,1.836.483,1.7,1.7,0,0,1,.63,1.44,1.537,1.537,0,0,1-.264.879,1.7,1.7,0,0,1-.771.606,1.564,1.564,0,0,1,.891.588,1.716,1.716,0,0,1,.315,1.038,1.892,1.892,0,0,1-.643,1.538,2.789,2.789,0,0,1-1.838.537Zm1.236-.986h1.372a1.328,1.328,0,0,0,.908-.288,1.135,1.135,0,0,0-.806-1.933H11.849Zm0-3.13h1.21a1.4,1.4,0,0,0,.9-.261.893.893,0,0,0,.325-.74.906.906,0,0,0-.3-.761,1.514,1.514,0,0,0-.935-.235h-1.2ZM4.18,70.4,2.041,67.333l-.806.855V70.4H0V63.3H1.236V66.63l.683-.844L4,63.3H5.493L2.851,66.444,5.645,70.4ZM8.339,58.266a8.009,8.009,0,0,1-8-8V8a8.009,8.009,0,0,1,8-8h66.2a8.009,8.009,0,0,1,8,8V50.266a8.009,8.009,0,0,1-8,8ZM9.408,11.824,9.354,49.008c.005,0,1.161.115,3.146.115a71.321,71.321,0,0,0,34.808-9.566A69.325,69.325,0,0,0,67.35,22.264a43.137,43.137,0,0,0,5.459-8.8,3.059,3.059,0,0,0-2.144-3.872,3.92,3.92,0,0,0-1.2-.207A2.959,2.959,0,0,0,66.774,11.5a57.036,57.036,0,0,1-5.494,7.809,70.2,70.2,0,0,1-6.9,7.271,63.505,63.505,0,0,1-9.687,7.3,61.664,61.664,0,0,1-19.51,7.689,50.055,50.055,0,0,1-9.553,1.166H15.58V11.824a3.225,3.225,0,0,0-3.146-2.417A3.031,3.031,0,0,0,9.408,11.824Zm60.372,37.2a2.99,2.99,0,0,0,1.312-.32c2.154-1.048,1.673-3.429,1.474-4.135-.005-.022-.01-.035-.01-.04A68.424,68.424,0,0,0,64.1,32.822l-5.34,3.126c.08.113,8.021,11.408,8.215,11.408,0,0,0-.008,0-.017h0A3.685,3.685,0,0,0,69.78,49.027Z" fill="#fff"/>
</svg>
