<svg xmlns="http://www.w3.org/2000/svg" width="19" height="4.995" viewBox="0 0 19 4.995">
  <path id="Icon_material-outline-waves" data-name="Icon material-outline-waves" d="M20.053,6.69a4.217,4.217,0,0,0-2.8-1.2,4.217,4.217,0,0,0-2.8,1.2,3.029,3.029,0,0,1-1.948.9,2.771,2.771,0,0,1-1.948-.9,4.268,4.268,0,0,0-2.8-1.2,4.2,4.2,0,0,0-2.8,1.2A2.937,2.937,0,0,1,3,7.59v2.895a4.333,4.333,0,0,0,2.8-1.2,2.937,2.937,0,0,1,1.948-.9,2.806,2.806,0,0,1,1.948.9,4.2,4.2,0,0,0,2.8,1.2,4.268,4.268,0,0,0,2.8-1.2,3.029,3.029,0,0,1,1.948-.9,2.771,2.771,0,0,1,1.948.9,4.217,4.217,0,0,0,2.8,1.2V7.56a2.866,2.866,0,0,1-1.948-.87Z" transform="translate(-3 -5.49)" fill="#fff"/>
</svg>
